<?xml version="1.0" standalone="no"?>
<!DOCTYPE svg PUBLIC "-//W3C//DTD SVG 20010904//EN"
 "http://www.w3.org/TR/2001/REC-SVG-20010904/DTD/svg10.dtd">
<svg version="1.0" xmlns="http://www.w3.org/2000/svg"
 width="94.000000pt" height="94.000000pt" viewBox="0 0 94.000000 94.000000"
 preserveAspectRatio="xMidYMid meet">

<g transform="translate(0.000000,94.000000) scale(0.100000,-0.100000)"
fill="#000000" stroke="none">
<path d="M0 470 l0 -470 470 0 470 0 0 470 0 470 -470 0 -470 0 0 -470z m623
325 c74 -34 142 -102 175 -173 38 -80 43 -203 12 -284 -20 -54 -109 -168 -131
-168 -5 0 -9 48 -9 106 0 95 2 105 18 102 14 -3 18 -17 22 -73 l5 -70 32 54
c41 71 57 138 49 212 -25 248 -299 377 -507 240 -129 -86 -179 -264 -115 -408
16 -34 37 -70 47 -79 18 -17 19 -15 19 54 0 57 3 72 15 72 12 0 15 -18 15
-105 0 -58 -4 -105 -9 -105 -18 0 -94 94 -119 148 -23 49 -27 70 -27 147 0 77
4 98 27 147 47 101 124 168 233 205 63 21 180 11 248 -22z m-96 -86 c29 -23
53 -45 53 -50 0 -22 -25 -17 -64 15 l-43 36 -44 -34 c-33 -26 -46 -32 -56 -24
-8 6 -12 12 -11 13 13 13 104 84 107 85 2 0 28 -19 58 -41z m-107 -349 c0
-243 -1 -250 -20 -250 -19 0 -20 7 -20 250 0 243 1 250 20 250 19 0 20 -7 20
-250z m70 -6 c0 -238 -1 -255 -17 -252 -17 3 -18 24 -21 256 -2 247 -2 252 18
252 20 0 20 -6 20 -256z m70 6 c0 -216 -2 -250 -15 -250 -13 0 -15 34 -15 250
0 216 2 250 15 250 13 0 15 -34 15 -250z m-212 -108 c2 -114 1 -123 -15 -120
-16 3 -18 18 -21 126 -2 114 -1 123 15 120 16 -3 18 -18 21 -126z m290 9 c3
-111 -2 -130 -30 -131 -5 0 -8 57 -8 126 0 114 2 125 18 122 15 -3 17 -18 20
-117z"/>
</g>
</svg>
