<?xml version="1.0" encoding="UTF-8"?>
<svg id="Capa_1" xmlns="http://www.w3.org/2000/svg" viewBox="0 0 888.16 268.22">
  <defs>
    <style>
      .cls-1 {
        fill: #00c980;
      }
    </style>
  </defs>
  <path class="cls-1" d="M57.8,235.54c-18.37-13.24-28.09-22.96-37.28-37C7.29,178,0,153.15,0,128.57,0,57.53,57.26,0,128.3,0s128.3,57.53,128.3,128.3c0,29.17-9.99,58.34-27.55,79.95-7.29,9.18-13.51,14.59-30.25,27.28v-75.09h12.69v51.32c9.45-11.07,14.05-17.83,18.64-25.93,9.45-16.75,14.59-37.55,14.59-57.53,0-64.83-52.13-117.5-116.42-117.5S11.88,63.48,11.88,129.11c0,29.98,10.53,56.45,32.95,82.65v-51.32h12.97v75.09ZM83.19,248.5c-2.43-.54-8.1-3.24-12.7-5.67v-82.38h12.7v88.06ZM160.45,67.53l-32.14-24.85-32.14,24.85-7.02-9.18,39.17-30.52,39.17,30.52-7.02,9.18ZM108.86,255.26c-4.59-.81-4.86-.81-6.48-1.35-1.35-.27-1.89-.27-6.21-1.35V76.98h12.7v178.27ZM134.52,256.34c-1.89.27-2.43.27-5.13.27-4.05,0-5.4,0-7.56-.27V76.98h12.7v179.35ZM160.18,252.29c-4.05,1.35-7.56,2.16-12.7,3.24V76.98h12.7v175.3ZM186.11,242.83c-4.05,1.89-6.48,2.97-12.97,5.94v-88.33h12.97v82.38Z"/>
  <path class="cls-1" d="M332.79,12.7c4.05-.27,7.29-.54,8.37-.54,15.4,0,25.66,8.91,25.66,22.69,0,9.45-5.13,16.21-16.21,21.61,14.05,2.97,21.61,11.88,21.61,25.12,0,10.26-5.67,18.91-14.59,22.42-4.05,1.62-8.91,2.16-17.83,2.16h-8.37c-4.59-.27-8.1-.27-10.8-.27h-15.67v-5.4l9.18-1.62V20.26l-9.18-1.62v-5.67h16.48l11.34-.27ZM305.51,243.91v-5.4l8.64-1.62v-78.87l-8.64-1.35v-5.94h31.06v5.67l-8.1,1.62v78.6l7.83,1.62v5.67h-30.79ZM334.41,54.02c11.61,0,17.02-5.94,17.02-18.64,0-10.8-5.67-17.29-15.4-17.29-2.7,0-4.59.27-8.37,1.62v34.3h6.75ZM327.66,98.32c2.7,1.62,4.59,2.16,8.37,2.16,12.7,0,20.53-7.83,20.53-20.53s-7.29-19.45-22.96-19.45h-5.94v37.82ZM379.25,243.91v-5.4l7.02-1.35v-39.44c0-7.56-2.43-11.07-7.56-11.07-4.05,0-7.56,1.62-12.7,5.94v44.03l7.02,1.62v5.67h-27.82v-5.4l7.83-1.62v-49.16l-7.83-1.08v-5.4l16.75-4.32h3.78v8.1c8.1-6.21,11.89-7.83,17.83-7.83,10.26,0,15.94,6.48,15.94,17.56v41.87l7.02,1.62v5.67h-27.28ZM435.7,71.58c0,21.34-11.07,35.65-27.28,35.65s-25.93-13.51-25.93-33.22c0-21.07,11.07-35.66,27.28-35.66s25.93,13.24,25.93,33.22ZM396.8,73.47c0,17.29,4.32,27.01,11.89,27.01,8.1,0,12.43-10.26,12.43-30.52,0-16.21-4.32-25.12-11.89-25.12s-12.43,10.53-12.43,28.63ZM458.66,186.11c3.78,4.86,4.86,8.1,4.86,13.24,0,12.42-9.72,21.61-22.69,21.61-2.7,0-4.86-.27-7.29-1.08-3.24,2.16-5.13,4.32-5.13,5.94s1.62,2.43,5.67,2.7l16.21.81c12.7.54,18.64,5.4,18.64,15.4,0,14.32-12.7,23.5-32.14,23.5-14.59,0-24.04-5.4-24.04-13.78,0-5.4,2.7-8.91,10.53-14.05-5.4-2.16-7.56-4.59-7.56-8.37,0-4.86,3.51-9.18,12.16-14.59-8.1-5.13-11.07-10.26-11.07-18.64,0-12.7,9.72-22.42,22.42-22.42,2.7,0,3.78.27,8.64,1.35,2.7.81,4.59,1.08,5.94,1.08.27,0,1.35,0,2.43-.27h2.43l11.07-.27v7.83h-11.07ZM430.57,241.48c-3.51,3.24-4.86,5.94-4.86,9.99,0,5.94,5.4,9.45,14.32,9.45,11.07,0,19.45-4.59,19.45-11.07,0-5.67-2.97-6.75-23.77-8.1l-5.13-.27ZM431.11,198.26c0,11.34,2.7,16.48,9.18,16.48s9.18-5.13,9.18-15.13c0-11.88-3.24-17.56-9.72-17.56-5.94,0-8.64,5.13-8.64,16.21ZM459.2,71.85c1.35,18.37,5.94,25.93,15.67,25.93,4.86,0,8.37-2.43,12.43-8.64l5.94,2.43c-6.75,12.16-11.61,15.67-22.15,15.67-16.21,0-25.39-11.61-25.39-32.68,0-22.42,9.45-35.92,25.12-35.92s22.42,10.8,22.69,33.22h-34.3ZM479.73,65.37c-.54-14.59-3.24-20.26-9.45-20.26s-9.45,6.21-11.07,20.26h20.53Z"/>
  <path class="cls-1" d="M490.54,209.61c1.35,18.64,5.94,26.2,15.67,26.2,5.13,0,8.64-2.43,12.7-8.64l5.94,2.43c-6.21,11.61-11.88,15.67-22.42,15.67-16.21,0-25.39-12.15-25.39-32.95,0-22.42,9.45-35.66,25.12-35.66,10.8,0,17.83,5.67,21.07,16.21,1.08,3.51,1.35,7.83,1.89,16.75h-34.57ZM511.07,203.39c-.27-14.05-2.97-20.26-9.18-20.26s-9.72,5.94-11.34,20.26h20.53ZM535.38,105.88v-5.4l6.48-1.35v-36.47c0-9.72-2.16-13.24-7.83-13.24-4.05,0-7.02,1.35-12.43,5.94v43.49l6.48,1.35v5.67h-27.55v-5.4l8.1-1.62V16.48l-7.56-1.62v-4.59l16.75-3.51h3.78v40.79c7.56-5.94,11.88-7.83,17.56-7.83,10.53,0,15.94,6.21,15.94,18.37v40.79l7.02,1.35v5.67h-26.74ZM532.95,243.91v-5.4l7.83-1.62v-83.19l-7.56-.81v-4.59l17.02-3.78h3.51v92.11l7.29,1.62v5.67h-28.09ZM604.53,243.91v-5.4l6.48-1.35v-36.74c0-9.72-2.16-13.24-7.83-13.24-3.78,0-7.02,1.62-12.42,6.21v43.22l6.48,1.62v5.67h-27.28v-5.4l7.83-1.62v-82.65l-7.56-1.35v-4.59l17.02-3.78h3.51v41.06c7.29-5.94,11.61-7.83,17.83-7.83,9.99,0,15.67,6.21,15.67,17.29v41.6l7.29,1.62v5.67h-27.01ZM591.57,51.59c5.4-9.18,8.1-11.61,12.97-11.61s7.83,2.97,7.83,7.83c0,2.97-1.62,5.4-5.13,8.1l-7.02-3.78c-4.59,2.43-8.37,7.56-8.37,11.34v35.38l9.45,1.35v5.67h-29.98v-5.4l7.83-1.62v-49.7l-7.83-1.35v-4.32l16.21-4.32h4.05v12.43ZM619.12,105.88v-5.4l7.29-1.62v-48.62l-7.29-1.62v-4.59l17.02-4.32h3.24v59.15l7.56,1.35v5.67h-27.82ZM640.46,15.4c0,4.86-3.78,8.64-8.64,8.64s-8.64-3.78-8.64-8.64,3.78-8.64,8.64-8.64,8.64,3.78,8.64,8.64ZM653.69,209.61c1.35,18.64,5.94,26.2,15.67,26.2,5.13,0,8.64-2.43,12.7-8.64l5.94,2.43c-6.21,11.61-11.88,15.67-22.42,15.67-16.21,0-25.39-12.15-25.39-32.95,0-22.42,9.45-35.66,25.12-35.66,10.81,0,17.83,5.67,21.07,16.21,1.08,3.51,1.35,7.83,1.89,16.75h-34.57ZM674.22,203.39c-.27-14.05-2.97-20.26-9.18-20.26s-9.72,5.94-11.34,20.26h20.53Z"/>
  <path class="cls-1" d="M690.43,105.88v-5.4l7.02-1.35v-39.44c0-7.56-2.43-11.07-7.56-11.07-4.05,0-7.56,1.62-12.7,5.94v44.03l7.02,1.62v5.67h-27.82v-5.4l7.83-1.62v-49.16l-7.83-1.08v-5.4l16.75-4.32h3.78v8.1c8.1-6.21,11.88-7.83,17.83-7.83,10.26,0,15.94,6.48,15.94,17.56v41.87l7.02,1.62v5.67h-27.28ZM698.81,243.91v-5.4l7.29-1.62v-48.89l-7.29-1.62v-4.32l17.02-4.32h3.24v58.88l7.56,1.62v5.67h-27.82ZM720.42,153.15c0,4.86-4.05,8.91-8.91,8.91s-8.64-3.78-8.64-8.64,4.05-8.91,9.18-8.91c4.59,0,8.37,4.05,8.37,8.64ZM769.58,48.08c3.78,4.86,4.86,8.1,4.86,13.24,0,12.43-9.72,21.61-22.69,21.61-2.7,0-4.86-.27-7.29-1.08-3.24,2.16-5.13,4.32-5.13,5.67,0,1.89,1.62,2.7,5.67,2.97l16.21.81c12.7.54,18.64,5.4,18.64,15.4,0,14.32-12.7,23.5-32.14,23.5-14.59,0-24.04-5.4-24.04-13.78,0-5.4,2.97-9.18,10.53-14.05-5.4-2.16-7.56-4.86-7.56-8.64,0-4.59,3.51-8.91,12.15-14.32-8.1-5.13-11.07-10.26-11.07-18.64,0-12.69,9.73-22.42,22.42-22.42,2.7,0,3.78.27,8.64,1.35,2.7.81,4.59,1.08,5.94,1.08.27,0,1.35,0,2.43-.27h2.43l11.07-.27v7.83h-11.07ZM804.42,243.91v-5.4l7.29-1.62v-37.54c0-8.91-2.43-12.43-8.1-12.43-4.32,0-7.29,1.62-12.69,6.48v43.22l6.75,1.62v5.67h-27.28v-5.4l7.56-1.62v-37.82c0-8.37-2.7-12.16-8.64-12.16-4.32,0-7.56,1.62-12.15,6.21v43.49l6.21,1.62v5.67h-27.55v-5.4l7.83-1.62v-49.7l-7.83-1.35v-4.59l17.02-4.32h3.51v8.91c6.75-5.67,11.88-7.83,18.37-7.83s11.34,2.7,15.13,8.64c7.02-6.48,11.62-8.91,18.64-8.91,11.61,0,16.48,5.67,16.48,19.18v39.71l7.56,1.62v5.67h-28.09ZM736.62,113.45c0,5.94,5.4,9.45,14.32,9.45,11.07,0,19.45-4.86,19.45-11.07s-2.16-6.75-28.9-8.37c-3.51,3.24-4.86,5.94-4.86,9.99ZM742.03,60.24c0,11.34,2.7,16.48,9.18,16.48s9.18-5.13,9.18-15.13c0-11.89-3.24-17.56-9.72-17.56-5.94,0-8.64,5.13-8.64,16.21ZM801.72,71.85c1.35,18.37,5.94,25.93,15.67,25.93,4.86,0,8.37-2.43,12.42-8.64l5.94,2.43c-6.75,12.16-11.61,15.67-22.15,15.67-16.21,0-25.39-11.61-25.39-32.68,0-22.42,9.45-35.92,25.12-35.92s22.42,10.8,22.69,33.22h-34.3ZM822.25,65.37c-.54-14.59-3.24-20.26-9.45-20.26s-9.45,6.21-11.07,20.26h20.53ZM867.36,51.59c5.4-9.18,8.1-11.61,12.97-11.61s7.83,2.97,7.83,7.83c0,2.97-1.62,5.4-5.13,8.1l-7.02-3.78c-4.59,2.43-8.37,7.56-8.37,11.34v35.38l9.45,1.35v5.67h-29.98v-5.4l7.83-1.62v-49.7l-7.83-1.35v-4.32l16.21-4.32h4.05v12.43Z"/>
</svg>