<?xml version="1.0" encoding="UTF-8"?>
<svg id="Capa_1" xmlns="http://www.w3.org/2000/svg" viewBox="0 0 648.44 219.39">
  <defs>
    <style>
      .cls-1 {
        fill: #12100b;
      }

      .cls-1, .cls-2, .cls-3 {
        fill-rule: evenodd;
      }

      .cls-2 {
        fill: #fff;
      }

      .cls-4, .cls-3 {
        fill: #db0d15;
      }

      .cls-5 {
        fill: none;
        stroke: #1d1719;
        stroke-linejoin: round;
        stroke-width: 2px;
      }
    </style>
  </defs>
  <path class="cls-1" d="M587.88,89.57h-9.26l4.66-13.09,4.59,13.09ZM593.45,97.47l-9.08-24.78h-2.23l-9.12,24.78h2.82l1.98-5.6h10.83l1.98,5.6h2.82ZM569.71,97.47v-24.78h-2.65v19.81l-13.16-19.81h-2.51v24.78h2.65v-19.88l13.16,19.88h2.51ZM542.52,89.57h-9.26l4.66-13.09,4.59,13.09ZM548.09,97.47l-9.08-24.78h-2.23l-9.12,24.78h2.82l1.98-5.6h10.83l1.98,5.6h2.82ZM524.35,97.47v-24.78h-2.65v24.78h2.65ZM513.15,79.34c0,.99-.23,1.8-.65,2.44-.43.63-1,1.11-1.73,1.42-.73.31-1.56.46-2.49.46h-6.47v-8.6h6.47c.93,0,1.76.15,2.49.45.73.3,1.31.77,1.73,1.4.42.63.64,1.44.65,2.42ZM513.53,90.54c0,.93-.21,1.74-.61,2.42-.4.68-.97,1.21-1.72,1.58-.74.37-1.62.56-2.65.56h-6.75v-9.08h6.75c1.03,0,1.91.19,2.65.55.74.37,1.32.89,1.72,1.56.4.68.6,1.48.61,2.41ZM516.17,90.61c0-.99-.18-1.87-.52-2.65-.34-.78-.81-1.44-1.42-1.98-.6-.55-1.31-.96-2.1-1.25.7-.26,1.33-.65,1.87-1.17.55-.52.98-1.14,1.3-1.87.31-.73.48-1.52.48-2.4,0-1.04-.18-1.97-.53-2.78-.35-.82-.85-1.51-1.5-2.08-.65-.57-1.42-1-2.31-1.3-.89-.3-1.88-.45-2.96-.45h-9.33v24.78h9.64c1.1,0,2.1-.15,3.01-.44.9-.29,1.68-.72,2.33-1.31.65-.57,1.15-1.29,1.51-2.15.35-.85.53-1.84.53-2.96ZM492.68,97.47v-24.78h-2.65l-7.87,17.58-8.08-17.58h-2.65v24.78h2.65v-18.83l6.89,14.93h2.26l6.79-14.93v18.83h2.65ZM463.27,85.08c0,1.26-.01,2.34-.05,3.24-.04.91-.12,1.67-.23,2.31-.12.64-.29,1.19-.52,1.65-.23.46-.55.89-.93,1.29-.57.57-1.22,1.01-1.94,1.3-.72.3-1.5.44-2.34.44s-1.62-.15-2.34-.44c-.72-.29-1.37-.72-1.94-1.3-.39-.39-.7-.82-.93-1.29-.23-.46-.41-1.02-.52-1.65-.12-.64-.2-1.4-.23-2.31-.04-.9-.06-1.98-.05-3.24,0-1.26.01-2.34.05-3.25.03-.9.12-1.66.23-2.3.12-.64.29-1.19.52-1.65.23-.47.55-.9.93-1.29.57-.57,1.22-1.01,1.94-1.3.72-.3,1.5-.44,2.34-.44s1.62.15,2.34.44c.72.29,1.37.73,1.94,1.3.39.39.7.82.93,1.29.23.46.41,1.02.52,1.65.12.64.2,1.4.23,2.3.04.91.06,1.98.05,3.25ZM465.91,85.08c0-1.41-.02-2.63-.06-3.66-.05-1.03-.15-1.92-.31-2.68-.16-.76-.41-1.44-.75-2.05-.34-.61-.79-1.2-1.37-1.78-.77-.77-1.66-1.37-2.69-1.79-1.03-.42-2.19-.64-3.47-.64-1.29,0-2.45.22-3.49.64-1.04.42-1.94,1.02-2.71,1.79-.58.57-1.03,1.17-1.37,1.78-.34.61-.58,1.29-.74,2.05-.16.76-.26,1.65-.3,2.68-.05,1.03-.06,2.25-.06,3.66,0,1.41.01,2.63.06,3.65.05,1.03.15,1.92.3,2.68.16.76.41,1.44.74,2.05.34.61.79,1.2,1.37,1.78.77.77,1.67,1.37,2.71,1.79,1.03.42,2.2.64,3.49.64,1.29,0,2.45-.22,3.47-.64,1.03-.42,1.92-1.02,2.69-1.79.58-.57,1.04-1.17,1.37-1.78.34-.61.59-1.29.75-2.05.16-.76.27-1.65.31-2.68.05-1.03.07-2.25.06-3.65ZM446.98,97.47v-2.37h-12.67v-22.42h-2.65v24.78h15.32ZM423.48,85.08c0,1.26-.01,2.34-.05,3.24-.03.91-.12,1.67-.23,2.31-.12.64-.29,1.19-.52,1.65-.23.46-.55.89-.93,1.29-.57.57-1.22,1.01-1.94,1.3-.72.3-1.5.44-2.34.44s-1.62-.15-2.34-.44c-.72-.29-1.37-.72-1.94-1.3-.39-.39-.7-.82-.93-1.29-.23-.46-.41-1.02-.52-1.65-.12-.64-.2-1.4-.23-2.31-.04-.9-.06-1.98-.05-3.24,0-1.26.01-2.34.05-3.25.03-.9.12-1.66.23-2.3.12-.64.29-1.19.52-1.65.23-.47.55-.9.93-1.29.57-.57,1.22-1.01,1.94-1.3.72-.3,1.5-.44,2.34-.44s1.62.15,2.34.44c.72.29,1.37.73,1.94,1.3.39.39.7.82.93,1.29.23.46.41,1.02.52,1.65.12.64.2,1.4.23,2.3.04.91.06,1.98.05,3.25ZM426.13,85.08c0-1.41-.02-2.63-.06-3.66-.05-1.03-.15-1.92-.31-2.68-.16-.76-.41-1.44-.75-2.05-.34-.61-.79-1.2-1.37-1.78-.77-.77-1.66-1.37-2.69-1.79-1.03-.42-2.19-.64-3.47-.64-1.29,0-2.45.22-3.49.64-1.04.42-1.94,1.02-2.71,1.79-.58.57-1.03,1.17-1.37,1.78-.34.61-.58,1.29-.74,2.05-.16.76-.26,1.65-.3,2.68-.05,1.03-.06,2.25-.06,3.66,0,1.41.01,2.63.06,3.65.05,1.03.15,1.92.3,2.68.16.76.41,1.44.74,2.05.34.61.79,1.2,1.37,1.78.77.77,1.67,1.37,2.71,1.79,1.03.42,2.2.64,3.49.64,1.29,0,2.45-.22,3.47-.64,1.03-.42,1.92-1.02,2.69-1.79.58-.57,1.04-1.17,1.37-1.78.34-.61.59-1.29.75-2.05.16-.76.27-1.65.31-2.68.05-1.03.07-2.25.06-3.65ZM404.93,90.3h-2.65c-.23,1.03-.61,1.91-1.15,2.66-.54.75-1.22,1.32-2.03,1.73-.81.41-1.73.61-2.77.62-.84,0-1.62-.15-2.34-.44-.72-.29-1.37-.72-1.94-1.3-.39-.39-.7-.82-.93-1.29-.23-.46-.41-1.02-.52-1.65-.12-.64-.2-1.4-.23-2.31-.04-.9-.06-1.98-.05-3.24,0-1.26.01-2.34.05-3.25.03-.9.12-1.66.23-2.3.12-.64.29-1.19.52-1.65.23-.47.55-.9.93-1.29.57-.57,1.22-1.01,1.94-1.3.72-.3,1.5-.44,2.34-.44,1.03,0,1.95.21,2.76.61.8.41,1.47.99,2,1.73.53.75.91,1.64,1.13,2.66h2.71c-.3-1.55-.84-2.87-1.62-3.97-.78-1.1-1.76-1.94-2.95-2.52-1.18-.58-2.53-.88-4.03-.88-1.29,0-2.45.22-3.49.64-1.03.42-1.94,1.02-2.7,1.79-.58.57-1.03,1.17-1.37,1.78-.34.61-.58,1.29-.74,2.05-.16.76-.26,1.65-.3,2.68-.05,1.03-.06,2.25-.06,3.66,0,1.41.01,2.63.06,3.65.05,1.03.15,1.92.3,2.68.16.76.41,1.44.74,2.05.34.61.79,1.2,1.37,1.78.77.77,1.67,1.37,2.7,1.79,1.04.42,2.2.64,3.49.64,1.49,0,2.83-.3,4.01-.88,1.18-.59,2.17-1.43,2.96-2.53.78-1.1,1.33-2.42,1.62-3.97ZM372.45,85.08c.01,1.15-.01,2.25-.07,3.28-.05,1.03-.2,1.97-.43,2.81-.23.84-.61,1.55-1.14,2.12-.42.46-.89.82-1.4,1.09-.51.26-1.06.45-1.65.56-.59.11-1.2.17-1.82.16h-5.4v-20.05h5.4c.63,0,1.24.05,1.82.16.59.11,1.14.3,1.65.56.52.27.99.63,1.4,1.09.53.57.9,1.28,1.14,2.12.23.84.38,1.78.43,2.81.06,1.03.08,2.13.07,3.28ZM375.1,85.08c0-.95,0-1.89-.03-2.8-.03-.91-.11-1.79-.24-2.63-.13-.84-.35-1.63-.65-2.37-.31-.73-.73-1.4-1.27-1.99-.83-.9-1.78-1.56-2.84-1.98-1.06-.42-2.29-.63-3.67-.63h-8.49v24.78h8.49c1.39,0,2.61-.2,3.67-.63,1.06-.42,2.01-1.09,2.84-1.98.55-.59.96-1.26,1.27-2,.3-.73.52-1.52.65-2.36.13-.84.21-1.72.24-2.63.03-.91.04-1.85.03-2.8ZM349.03,89.57h-9.26l4.66-13.09,4.59,13.09ZM354.6,97.47l-9.08-24.78h-2.23l-9.12,24.78h2.82l1.98-5.6h10.83l1.98,5.6h2.82ZM329.5,85.08c.01,1.15-.01,2.25-.07,3.28-.05,1.03-.2,1.97-.43,2.81-.23.84-.61,1.55-1.14,2.12-.42.46-.89.82-1.4,1.09-.51.26-1.06.45-1.65.56-.59.11-1.2.17-1.82.16h-5.4v-20.05h5.4c.63,0,1.24.05,1.82.16.59.11,1.14.3,1.65.56.52.27.99.63,1.4,1.09.53.57.91,1.28,1.14,2.12.23.84.38,1.78.43,2.81.06,1.03.08,2.13.07,3.28ZM332.15,85.08c0-.95,0-1.89-.03-2.8-.03-.91-.11-1.79-.24-2.63-.13-.84-.35-1.63-.65-2.37-.31-.73-.73-1.4-1.27-1.99-.83-.9-1.78-1.56-2.84-1.98-1.06-.42-2.29-.63-3.67-.63h-8.49v24.78h8.49c1.39,0,2.61-.2,3.67-.63,1.06-.42,2.01-1.09,2.84-1.98.55-.59.96-1.26,1.27-2,.3-.73.52-1.52.65-2.36.13-.84.21-1.72.24-2.63.03-.91.04-1.85.03-2.8ZM310.15,97.47v-2.37h-12.74v-8.95h10.86v-2.37h-10.86v-8.74h12.74v-2.37h-15.39v24.78h15.39ZM288.29,97.47v-24.78h-2.65v24.78h2.65ZM280.49,90.3h-2.65c-.23,1.03-.61,1.91-1.15,2.66-.54.75-1.22,1.32-2.03,1.73-.81.41-1.73.61-2.77.62-.84,0-1.62-.15-2.34-.44-.72-.29-1.37-.72-1.94-1.3-.39-.39-.7-.82-.93-1.29-.23-.46-.41-1.02-.52-1.65-.12-.64-.2-1.4-.23-2.31-.04-.9-.06-1.98-.05-3.24,0-1.26.01-2.34.05-3.25.03-.9.12-1.66.23-2.3.12-.64.29-1.19.52-1.65.23-.47.55-.9.93-1.29.57-.57,1.22-1.01,1.94-1.3.72-.3,1.5-.44,2.34-.44,1.03,0,1.95.21,2.76.61.8.41,1.47.99,2,1.73.53.75.91,1.64,1.13,2.66h2.72c-.3-1.55-.84-2.87-1.62-3.97-.78-1.1-1.76-1.94-2.95-2.52-1.18-.58-2.53-.88-4.03-.88-1.29,0-2.45.22-3.49.64-1.03.42-1.94,1.02-2.7,1.79-.58.57-1.03,1.17-1.37,1.78-.34.61-.58,1.29-.74,2.05-.16.76-.26,1.65-.3,2.68-.05,1.03-.06,2.25-.06,3.66,0,1.41.01,2.63.06,3.65.05,1.03.14,1.92.3,2.68.16.76.41,1.44.74,2.05.34.61.79,1.2,1.37,1.78.77.77,1.67,1.37,2.7,1.79,1.04.42,2.2.64,3.49.64,1.49,0,2.83-.3,4.01-.88,1.18-.59,2.17-1.43,2.96-2.53.78-1.1,1.33-2.42,1.62-3.97ZM256.34,85.08c0,1.26-.01,2.34-.05,3.24-.04.91-.12,1.67-.23,2.31-.12.64-.29,1.19-.52,1.65-.23.46-.55.89-.93,1.29-.57.57-1.22,1.01-1.94,1.3-.72.3-1.5.44-2.34.44s-1.62-.15-2.34-.44c-.72-.29-1.37-.72-1.94-1.3-.39-.39-.7-.82-.93-1.29-.23-.46-.41-1.02-.52-1.65-.12-.64-.2-1.4-.23-2.31-.04-.9-.06-1.98-.05-3.24,0-1.26.01-2.34.05-3.25.04-.9.12-1.66.23-2.3.12-.64.29-1.19.52-1.65.23-.47.55-.9.93-1.29.57-.57,1.22-1.01,1.94-1.3.72-.3,1.5-.44,2.34-.44s1.62.15,2.34.44c.72.29,1.37.73,1.94,1.3.39.39.7.82.93,1.29.23.46.41,1.02.52,1.65.12.64.2,1.4.23,2.3.04.91.06,1.98.05,3.25ZM258.98,85.08c0-1.41-.02-2.63-.06-3.66-.05-1.03-.15-1.92-.31-2.68-.16-.76-.41-1.44-.75-2.05-.34-.61-.79-1.2-1.37-1.78-.77-.77-1.66-1.37-2.69-1.79s-2.19-.64-3.47-.64c-1.29,0-2.45.22-3.49.64-1.04.42-1.94,1.02-2.71,1.79-.58.57-1.03,1.17-1.37,1.78-.34.61-.58,1.29-.74,2.05-.16.76-.26,1.65-.3,2.68-.05,1.03-.06,2.25-.06,3.66,0,1.41.01,2.63.06,3.65.05,1.03.15,1.92.3,2.68.16.76.41,1.44.74,2.05.34.61.79,1.2,1.37,1.78.77.77,1.67,1.37,2.71,1.79,1.03.42,2.2.64,3.49.64,1.29,0,2.45-.22,3.47-.64,1.03-.42,1.92-1.02,2.69-1.79.58-.57,1.04-1.17,1.37-1.78.34-.61.59-1.29.75-2.05.16-.76.27-1.65.31-2.68.05-1.03.07-2.25.06-3.65ZM237.75,90.65c0-1.03-.19-1.95-.55-2.78-.37-.82-.88-1.52-1.54-2.09-.37-.33-.75-.61-1.15-.83-.4-.23-.87-.41-1.4-.56-.53-.15-1.18-.28-1.94-.39l-2.89-.45c-.65-.1-1.25-.26-1.82-.48-.56-.21-1.03-.48-1.42-.81-.38-.34-.66-.75-.85-1.24-.18-.49-.27-1.04-.27-1.65,0-.93.21-1.75.62-2.44.41-.7,1-1.23,1.79-1.61.78-.38,1.73-.57,2.85-.58.85,0,1.62.08,2.31.24.68.16,1.31.4,1.88.72.56.32,1.1.72,1.59,1.19l1.71-1.71c-.7-.63-1.42-1.14-2.15-1.54-.74-.41-1.53-.7-2.38-.89-.85-.19-1.8-.28-2.85-.28-1.64,0-3.06.3-4.24.87-1.18.57-2.09,1.37-2.73,2.41-.64,1.04-.96,2.27-.97,3.68,0,1.01.16,1.9.49,2.67.33.78.8,1.44,1.43,2,.55.49,1.2.88,1.95,1.19.74.31,1.61.53,2.58.69l2.89.42c.59.09,1.07.19,1.46.28.39.1.72.23,1,.37.27.14.53.33.78.56.42.37.73.81.92,1.33.2.52.3,1.11.3,1.77,0,.97-.24,1.81-.71,2.49-.47.68-1.14,1.21-2.02,1.57-.88.35-1.93.54-3.15.54-.92,0-1.76-.08-2.53-.24-.77-.16-1.5-.44-2.18-.84-.68-.39-1.36-.93-2.04-1.61l-1.77,1.78c.76.78,1.55,1.4,2.4,1.89.84.48,1.75.83,2.74,1.06.99.22,2.1.33,3.32.33,1.74,0,3.25-.29,4.53-.86,1.28-.56,2.27-1.37,2.97-2.41.7-1.05,1.06-2.3,1.07-3.76Z"/>
  <path class="cls-1" d="M640.65,129.22h-6.16l3.13-9.01,3.03,9.01ZM648.44,137.67l-9.05-24.78h-3.79l-9.02,24.78h5.05l1.5-4.39h8.81l1.46,4.39h5.05ZM626.38,104.57h-4.77l-2.23,5.92h3.03l3.97-5.92ZM624.22,137.67v-24.78h-4.84v24.78h4.84ZM615.13,127.51v-3.62h-9.36v4.07h4.56v.9c0,.64-.08,1.24-.26,1.8-.17.55-.46,1.06-.86,1.51-.38.44-.87.78-1.45,1.02-.58.24-1.25.37-2,.37-.66,0-1.25-.12-1.77-.34-.52-.23-.96-.54-1.33-.95-.23-.25-.41-.54-.57-.87-.15-.33-.27-.74-.37-1.25-.09-.5-.15-1.15-.19-1.94-.04-.78-.06-1.77-.06-2.94s.02-2.15.06-2.94c.04-.78.11-1.42.19-1.93.09-.5.21-.91.37-1.23.16-.32.34-.61.57-.86.37-.41.81-.73,1.33-.96.52-.24,1.11-.35,1.77-.36,1.23,0,2.22.31,2.95.92.73.61,1.24,1.51,1.51,2.7h4.87c-.16-1.06-.47-2.05-.92-3.01-.45-.95-1.06-1.79-1.82-2.53-.76-.74-1.69-1.32-2.78-1.75-1.09-.42-2.36-.64-3.8-.65-1.4,0-2.65.23-3.72.68-1.08.45-2.04,1.09-2.89,1.93-.61.61-1.09,1.26-1.43,1.94-.35.68-.59,1.42-.75,2.21-.15.8-.24,1.67-.28,2.63-.04.96-.05,2.03-.05,3.21,0,1.18.01,2.25.05,3.21.03.96.13,1.84.28,2.63.16.79.4,1.53.75,2.21.34.68.82,1.32,1.43,1.94.85.84,1.81,1.49,2.89,1.93,1.08.45,2.32.67,3.72.68.88,0,1.73-.08,2.54-.25.81-.17,1.58-.47,2.32-.88.74-.41,1.46-.97,2.14-1.69.6-.62,1.07-1.28,1.42-2,.34-.71.59-1.52.74-2.42.15-.9.21-1.94.21-3.13ZM592.79,129.18v-16.29h-4.8v16.12c0,.96-.19,1.77-.54,2.45-.35.68-.85,1.2-1.5,1.57-.64.36-1.4.54-2.28.54-.88,0-1.63-.19-2.27-.54-.64-.37-1.14-.88-1.48-1.57-.35-.68-.52-1.49-.53-2.45v-16.12h-4.84v16.29c0,1.32.24,2.51.71,3.58.46,1.06,1.11,1.98,1.94,2.74.83.76,1.79,1.35,2.9,1.76,1.1.41,2.29.61,3.57.62,1.28,0,2.47-.21,3.57-.62,1.1-.41,2.07-1,2.9-1.76.83-.77,1.47-1.68,1.94-2.74.46-1.07.7-2.26.71-3.58ZM565.78,120.48c0,.64-.15,1.21-.44,1.7-.28.49-.7.87-1.22,1.15-.53.28-1.14.42-1.86.42h-4.56v-6.54h4.56c.71,0,1.33.15,1.86.42.52.27.93.66,1.22,1.15.29.49.44,1.06.44,1.7ZM571.62,137.67l-5.53-10.69c.6-.22,1.18-.52,1.72-.89.54-.38,1.02-.84,1.44-1.38.42-.55.75-1.17.99-1.87.24-.7.37-1.49.37-2.36,0-1.04-.19-2.02-.55-2.94-.37-.91-.89-1.72-1.58-2.41-.69-.7-1.53-1.24-2.52-1.64-.99-.39-2.12-.6-3.39-.6h-9.71v24.78h4.84v-9.89h3.48l4.84,9.89h5.6ZM547.78,137.67v-24.78h-4.84v24.78h4.84ZM539.46,130.05h-4.91c-.16.68-.42,1.28-.77,1.81-.35.53-.81.94-1.37,1.24-.56.3-1.24.46-2.04.46-.66,0-1.26-.12-1.78-.34-.53-.23-.96-.54-1.32-.95-.23-.25-.42-.54-.57-.87-.16-.33-.28-.74-.38-1.25-.09-.5-.16-1.15-.2-1.94-.05-.78-.06-1.77-.06-2.94s.02-2.16.06-2.94c.04-.79.11-1.44.2-1.94.1-.5.22-.92.38-1.25.16-.32.35-.61.57-.86.35-.41.79-.72,1.32-.95.52-.23,1.12-.34,1.78-.34.8,0,1.48.16,2.04.46.56.3,1,.71,1.35,1.24.34.53.6,1.13.75,1.81h4.94c-.31-1.73-.89-3.17-1.73-4.33-.84-1.17-1.89-2.04-3.14-2.62-1.25-.59-2.66-.88-4.21-.88-1.42,0-2.67.23-3.75.68-1.09.45-2.05,1.09-2.89,1.93-.61.61-1.09,1.26-1.43,1.94-.35.68-.59,1.42-.75,2.21-.15.8-.24,1.67-.28,2.63-.03.96-.05,2.04-.05,3.21,0,1.18.01,2.25.05,3.21.03.96.13,1.84.28,2.63.16.79.4,1.53.75,2.21.34.68.82,1.32,1.43,1.94.85.84,1.81,1.49,2.89,1.93,1.09.45,2.33.67,3.75.68,1.15,0,2.23-.17,3.23-.49,1-.33,1.9-.82,2.7-1.48.79-.66,1.46-1.47,2-2.45.54-.97.92-2.11,1.15-3.41ZM500.13,118.57c0,.43-.14.82-.41,1.16-.27.34-.6.65-1.02.93l-1.04.7c-.3-.34-.56-.66-.81-.97-.24-.31-.44-.61-.59-.92-.15-.3-.23-.6-.23-.9,0-.39.08-.73.23-1.03.15-.31.38-.55.68-.72.31-.17.68-.27,1.14-.27.43,0,.8.09,1.11.27.3.17.54.41.7.72.16.3.24.64.24,1.03ZM501.31,132.31c-.56.5-1.14.87-1.73,1.11-.59.24-1.24.35-1.96.35-.7,0-1.34-.15-1.9-.45-.56-.29-1.01-.7-1.35-1.22-.33-.52-.5-1.13-.51-1.82,0-.59.11-1.1.32-1.54.21-.44.5-.84.87-1.2.38-.36.81-.71,1.32-1.06l4.94,5.81ZM511.61,137.67l-4.46-5.26c.86-.97,1.5-2.1,1.91-3.38.41-1.28.66-2.72.74-4.32h-4.28c-.03.89-.15,1.7-.35,2.44-.2.73-.5,1.37-.9,1.91l-4.18-4.94,1.78-1.29c.52-.37.96-.77,1.34-1.19.38-.42.67-.89.88-1.4.21-.52.32-1.09.32-1.72,0-1.14-.27-2.14-.78-3.02-.51-.88-1.24-1.57-2.18-2.07-.95-.5-2.07-.75-3.38-.77-1.39,0-2.57.26-3.56.75-.99.49-1.74,1.17-2.26,2.03-.52.86-.79,1.86-.79,3,0,.59.09,1.14.24,1.66.16.51.37.99.61,1.43.25.44.52.84.8,1.2.28.36.56.68.81.97-.54.35-1.08.75-1.61,1.2-.52.44-1,.93-1.43,1.47-.43.55-.77,1.15-1.03,1.8-.26.66-.39,1.39-.39,2.18,0,1.56.3,2.9.9,4.02.6,1.12,1.51,1.98,2.73,2.59,1.21.6,2.73.9,4.55.91.86,0,1.62-.08,2.27-.22.66-.15,1.24-.34,1.74-.57.5-.23.95-.49,1.33-.76.39-.28.74-.54,1.06-.81l1.81,2.16h5.74ZM472.73,129.22h-6.16l3.13-9.01,3.03,9.01ZM480.53,137.67l-9.05-24.78h-3.79l-9.02,24.78h5.05l1.5-4.39h8.81l1.46,4.39h5.05ZM458.46,104.57h-4.77l-2.23,5.92h3.03l3.97-5.92ZM456.31,137.67v-24.78h-4.84v24.78h4.84ZM447.22,127.51v-3.62h-9.36v4.07h4.56v.9c0,.64-.08,1.24-.26,1.8-.17.55-.46,1.06-.86,1.51-.38.44-.87.78-1.45,1.02-.58.24-1.25.37-2,.37-.66,0-1.25-.12-1.77-.34-.52-.23-.96-.54-1.33-.95-.23-.25-.41-.54-.57-.87-.15-.33-.27-.74-.37-1.25-.09-.5-.15-1.15-.19-1.94-.04-.78-.06-1.77-.06-2.94s.02-2.15.06-2.94c.04-.78.1-1.42.19-1.93.09-.5.21-.91.37-1.23.16-.32.34-.61.57-.86.37-.41.81-.73,1.33-.96.52-.24,1.11-.35,1.77-.36,1.23,0,2.22.31,2.95.92.73.61,1.24,1.51,1.51,2.7h4.87c-.16-1.06-.47-2.05-.92-3.01-.45-.95-1.06-1.79-1.82-2.53-.76-.74-1.69-1.32-2.78-1.75-1.09-.42-2.36-.64-3.8-.65-1.4,0-2.65.23-3.72.68-1.08.45-2.04,1.09-2.89,1.93-.61.61-1.09,1.26-1.43,1.94-.35.68-.59,1.42-.75,2.21-.15.8-.24,1.67-.28,2.63-.03.96-.05,2.03-.05,3.21,0,1.18.01,2.25.05,3.21.04.96.13,1.84.28,2.63.16.79.4,1.53.75,2.21.34.68.82,1.32,1.43,1.94.85.84,1.81,1.49,2.89,1.93,1.08.45,2.32.67,3.72.68.88,0,1.73-.08,2.54-.25.81-.17,1.58-.47,2.32-.88.74-.41,1.46-.97,2.14-1.69.6-.62,1.07-1.28,1.42-2,.34-.71.59-1.52.74-2.42.15-.9.21-1.94.21-3.13ZM420.84,125.28c0,1.17-.02,2.15-.06,2.93-.04.78-.11,1.42-.2,1.91-.1.5-.22.9-.38,1.22-.16.32-.35.61-.57.86-.35.41-.79.73-1.31.98-.53.24-1.12.37-1.79.38-.66,0-1.26-.13-1.79-.38-.53-.25-.98-.57-1.35-.98-.23-.25-.41-.54-.57-.86-.15-.32-.27-.73-.37-1.22-.09-.49-.15-1.13-.19-1.91-.04-.78-.06-1.76-.06-2.93s.02-2.15.06-2.94c.04-.78.1-1.42.19-1.93.09-.5.21-.91.37-1.23.16-.32.34-.61.57-.86.37-.41.82-.73,1.35-.96.53-.24,1.13-.35,1.79-.36.67,0,1.26.12,1.79.36.52.24.96.56,1.31.96.23.25.42.54.57.86.16.32.28.73.38,1.23.09.5.16,1.14.2,1.93.05.79.06,1.76.06,2.94ZM425.67,125.28c0-1.18-.01-2.25-.05-3.21-.04-.96-.14-1.83-.3-2.63-.16-.79-.41-1.53-.76-2.21-.35-.68-.82-1.32-1.44-1.94-.83-.84-1.78-1.49-2.86-1.93-1.09-.45-2.33-.67-3.75-.68-1.42,0-2.67.23-3.77.68-1.1.45-2.05,1.09-2.88,1.93-.61.61-1.09,1.26-1.43,1.94-.35.68-.59,1.42-.75,2.21-.15.8-.24,1.67-.28,2.63-.03.96-.05,2.04-.05,3.21,0,1.18.01,2.25.05,3.21.03.96.13,1.84.28,2.63.16.79.4,1.53.75,2.21.34.68.82,1.32,1.43,1.94.83.84,1.79,1.49,2.88,1.93,1.09.45,2.34.67,3.77.68,1.42,0,2.67-.23,3.75-.68,1.08-.45,2.03-1.09,2.86-1.93.61-.62,1.09-1.26,1.44-1.94.35-.68.6-1.42.76-2.21.16-.79.26-1.67.3-2.63.03-.96.05-2.03.05-3.21ZM406.18,137.67v-4.32h-11.24v-20.47h-4.84v24.78h16.08ZM381.02,125.28c0,1.17-.02,2.15-.06,2.93-.04.78-.11,1.42-.2,1.91-.1.5-.22.9-.38,1.22-.16.32-.35.61-.57.86-.35.41-.79.73-1.31.98-.53.24-1.12.37-1.79.38-.66,0-1.26-.13-1.79-.38-.53-.25-.98-.57-1.35-.98-.23-.25-.41-.54-.57-.86-.15-.32-.27-.73-.37-1.22-.09-.49-.15-1.13-.19-1.91-.04-.78-.06-1.76-.06-2.93s.02-2.15.06-2.94c.04-.78.1-1.42.19-1.93.09-.5.21-.91.37-1.23.16-.32.34-.61.57-.86.37-.41.82-.73,1.35-.96.53-.24,1.13-.35,1.79-.36.67,0,1.26.12,1.79.36.52.24.96.56,1.31.96.23.25.42.54.57.86.16.32.28.73.38,1.23.09.5.16,1.14.2,1.93.05.79.06,1.76.06,2.94ZM385.85,125.28c0-1.18-.01-2.25-.05-3.21-.04-.96-.14-1.83-.3-2.63-.16-.79-.41-1.53-.76-2.21-.35-.68-.82-1.32-1.44-1.94-.83-.84-1.78-1.49-2.86-1.93-1.09-.45-2.33-.67-3.75-.68-1.42,0-2.67.23-3.77.68-1.1.45-2.05,1.09-2.88,1.93-.61.61-1.09,1.26-1.43,1.94-.35.68-.59,1.42-.75,2.21-.15.8-.24,1.67-.28,2.63-.04.96-.05,2.04-.05,3.21,0,1.18.01,2.25.05,3.21.03.96.13,1.84.28,2.63.16.79.4,1.53.75,2.21.34.68.82,1.32,1.43,1.94.83.84,1.79,1.49,2.88,1.93,1.09.45,2.34.67,3.77.68,1.42,0,2.67-.23,3.75-.68,1.08-.45,2.03-1.09,2.86-1.93.61-.62,1.09-1.26,1.44-1.94.35-.68.6-1.42.76-2.21.16-.79.26-1.67.3-2.63.03-.96.05-2.03.05-3.21ZM363.3,137.67v-24.78h-4.84v24.78h4.84ZM349.38,125.28c0,.97,0,1.81-.03,2.52-.02.7-.07,1.31-.13,1.81-.07.5-.17.93-.31,1.29-.13.35-.31.66-.54.93-.4.5-.9.89-1.5,1.14-.6.26-1.31.39-2.12.39h-3.69v-16.15h3.69c.82,0,1.53.13,2.12.39.6.26,1.1.64,1.5,1.14.23.27.41.57.54.93.13.35.24.78.31,1.29.06.5.11,1.1.13,1.81.02.71.03,1.55.03,2.52ZM354.21,125.28c.01-1.36-.01-2.57-.06-3.63-.05-1.06-.19-2.01-.42-2.84-.22-.84-.58-1.6-1.08-2.3-.59-.82-1.25-1.5-1.98-2.04-.73-.53-1.55-.93-2.46-1.2-.9-.26-1.92-.39-3.05-.39h-8.95v24.78h8.95c1.13,0,2.14-.13,3.05-.39.91-.26,1.73-.66,2.46-1.2.73-.53,1.39-1.21,1.98-2.04.5-.7.86-1.47,1.08-2.3.23-.84.37-1.79.42-2.84.05-1.06.08-2.26.06-3.63ZM327.06,120.48c0,.64-.15,1.21-.44,1.7-.28.49-.7.87-1.22,1.15-.53.28-1.14.42-1.86.42h-4.56v-6.54h4.56c.71,0,1.33.15,1.86.42.52.27.93.66,1.22,1.15.29.49.43,1.06.44,1.7ZM332.91,137.67l-5.53-10.69c.6-.22,1.18-.52,1.72-.89.54-.38,1.02-.84,1.44-1.38.42-.55.75-1.17.99-1.87.24-.7.37-1.49.37-2.36,0-1.04-.19-2.02-.55-2.94-.37-.91-.89-1.72-1.58-2.41-.69-.7-1.53-1.24-2.52-1.64-.99-.39-2.12-.6-3.39-.6h-9.71v24.78h4.84v-9.89h3.48l4.84,9.89h5.6ZM303.99,129.22h-6.16l3.13-9.01,3.03,9.01ZM311.78,137.67l-9.05-24.78h-3.79l-9.01,24.78h5.05l1.5-4.39h8.81l1.46,4.39h5.05ZM289.51,130.05h-4.91c-.16.68-.42,1.28-.77,1.81-.35.53-.81.94-1.37,1.24-.56.3-1.24.46-2.04.46-.66,0-1.26-.12-1.78-.34-.53-.23-.96-.54-1.32-.95-.23-.25-.42-.54-.57-.87-.16-.33-.28-.74-.38-1.25-.09-.5-.16-1.15-.2-1.94-.05-.78-.06-1.77-.06-2.94s.02-2.16.06-2.94c.04-.79.11-1.44.2-1.94.1-.5.22-.92.38-1.25.16-.32.35-.61.57-.86.35-.41.79-.72,1.32-.95.52-.23,1.12-.34,1.78-.34.8,0,1.48.16,2.04.46.56.3,1,.71,1.35,1.24.34.53.6,1.13.75,1.81h4.94c-.31-1.73-.89-3.17-1.73-4.33-.84-1.17-1.89-2.04-3.14-2.62-1.25-.59-2.66-.88-4.21-.88-1.42,0-2.67.23-3.75.68-1.08.45-2.05,1.09-2.89,1.93-.61.61-1.09,1.26-1.43,1.94-.35.68-.59,1.42-.75,2.21-.15.8-.24,1.67-.28,2.63-.04.96-.05,2.04-.05,3.21,0,1.18.01,2.25.05,3.21.03.96.13,1.84.28,2.63.16.79.4,1.53.75,2.21.34.68.82,1.32,1.43,1.94.85.84,1.81,1.49,2.89,1.93,1.09.45,2.33.67,3.75.68,1.15,0,2.23-.17,3.23-.49,1-.33,1.9-.82,2.7-1.48.79-.66,1.46-1.47,2-2.45.54-.97.92-2.11,1.15-3.41ZM260.69,137.67v-4.32h-11.49v-6.02h9.78v-4.32h-9.78v-5.81h11.49v-4.32h-16.32v24.78h16.32ZM235.28,125.28c0,.97,0,1.81-.03,2.52-.02.7-.07,1.31-.13,1.81-.07.5-.17.93-.31,1.29-.13.35-.31.66-.54.93-.4.5-.9.89-1.5,1.14-.6.26-1.31.39-2.12.39h-3.69v-16.15h3.69c.82,0,1.53.13,2.12.39.6.26,1.1.64,1.5,1.14.23.27.41.57.54.93.13.35.24.78.31,1.29.06.5.11,1.1.13,1.81.02.71.03,1.55.03,2.52ZM240.11,125.28c.01-1.36-.01-2.57-.06-3.63-.05-1.06-.19-2.01-.42-2.84-.22-.84-.58-1.6-1.08-2.3-.59-.82-1.25-1.5-1.98-2.04-.73-.53-1.55-.93-2.46-1.2-.91-.26-1.92-.39-3.05-.39h-8.95v24.78h8.95c1.13,0,2.14-.13,3.05-.39.91-.26,1.73-.66,2.46-1.2.73-.53,1.39-1.21,1.98-2.04.5-.7.86-1.47,1.08-2.3.23-.84.37-1.79.42-2.84.05-1.06.08-2.26.06-3.63Z"/>
  <path class="cls-1" d="M496.47,160.68c0,.64-.15,1.21-.44,1.7-.28.49-.7.87-1.22,1.15-.53.28-1.14.42-1.86.42h-4.56v-6.54h4.56c.71,0,1.33.14,1.86.42.52.27.93.66,1.22,1.15.29.49.44,1.06.44,1.7M502.32,177.88l-5.53-10.69c.6-.22,1.18-.52,1.72-.89.54-.38,1.02-.84,1.44-1.38.42-.55.75-1.17.99-1.87.24-.7.37-1.49.37-2.36,0-1.04-.19-2.02-.55-2.94-.37-.91-.89-1.72-1.58-2.41-.69-.7-1.53-1.24-2.52-1.64-.99-.39-2.12-.6-3.39-.6h-9.71v24.78h4.84v-9.88h3.48l4.84,9.88h5.6ZM473.4,169.42h-6.16l3.13-9.02,3.03,9.02ZM481.19,177.88l-9.05-24.78h-3.79l-9.01,24.78h5.05l1.5-4.39h8.81l1.46,4.39h5.05ZM458.81,177.88v-4.32h-11.24v-20.47h-4.84v24.78h16.08ZM438.03,169.38v-16.29h-4.8v16.12c0,.96-.19,1.77-.54,2.45-.35.68-.85,1.2-1.5,1.57-.64.36-1.4.54-2.28.55-.88,0-1.63-.19-2.27-.55-.64-.37-1.14-.88-1.49-1.57-.35-.68-.52-1.49-.53-2.45v-16.12h-4.84v16.29c0,1.32.24,2.51.71,3.58.46,1.06,1.11,1.98,1.94,2.74.83.76,1.79,1.35,2.89,1.76,1.1.41,2.29.61,3.57.62,1.28,0,2.47-.21,3.57-.62,1.1-.41,2.07-1,2.9-1.76.83-.77,1.47-1.68,1.94-2.74.46-1.07.7-2.26.71-3.58ZM416.69,170.25h-4.91c-.16.68-.42,1.28-.77,1.81-.35.53-.81.94-1.37,1.24-.56.3-1.24.46-2.04.46-.66,0-1.26-.12-1.78-.34-.53-.23-.96-.54-1.32-.95-.23-.25-.42-.54-.57-.87-.16-.33-.28-.74-.38-1.25-.09-.5-.16-1.15-.2-1.94-.05-.78-.06-1.77-.06-2.94s.02-2.16.06-2.94c.04-.79.11-1.44.2-1.94.1-.5.22-.92.38-1.25.16-.32.35-.61.57-.86.35-.41.79-.72,1.32-.95.52-.23,1.12-.34,1.78-.34.8,0,1.48.16,2.04.46.56.3,1,.71,1.35,1.24.34.53.6,1.13.75,1.81h4.94c-.31-1.73-.89-3.17-1.73-4.33-.84-1.17-1.89-2.04-3.14-2.62-1.25-.59-2.66-.88-4.21-.88-1.42,0-2.67.23-3.75.68-1.08.45-2.05,1.09-2.89,1.93-.61.61-1.09,1.26-1.43,1.94-.35.68-.59,1.42-.75,2.21-.15.79-.24,1.67-.28,2.63-.03.96-.05,2.04-.05,3.21,0,1.18.01,2.25.05,3.21.03.96.13,1.84.28,2.63.16.79.4,1.53.75,2.21.34.68.82,1.32,1.43,1.94.85.84,1.81,1.49,2.89,1.93,1.09.45,2.33.67,3.75.68,1.15,0,2.23-.17,3.23-.49,1-.33,1.9-.82,2.7-1.48.79-.66,1.46-1.47,2-2.45.54-.97.92-2.11,1.15-3.41ZM395.43,170.57c0-1.11-.15-2.11-.46-2.99-.31-.88-.79-1.62-1.46-2.23-.35-.35-.75-.65-1.2-.9-.45-.26-.96-.46-1.54-.64-.58-.17-1.24-.31-2-.41l-2.96-.45c-.52-.07-.97-.19-1.34-.35-.37-.16-.68-.36-.92-.59-.26-.24-.44-.52-.55-.82-.1-.3-.16-.62-.15-.95,0-.57.13-1.1.41-1.57.27-.47.69-.85,1.25-1.13.56-.28,1.27-.42,2.13-.43.55,0,1.12.03,1.71.11.59.08,1.17.24,1.74.49.57.24,1.12.61,1.64,1.11l3.06-3.03c-.7-.68-1.46-1.24-2.26-1.67-.8-.42-1.68-.74-2.62-.93-.95-.2-1.99-.29-3.12-.29-1.34,0-2.55.19-3.61.55-1.07.37-1.97.88-2.71,1.55-.75.67-1.32,1.46-1.71,2.38-.39.92-.59,1.93-.6,3.04,0,1.04.15,1.97.45,2.79.3.81.74,1.51,1.33,2.08.55.54,1.22.97,2,1.31.78.34,1.72.59,2.81.74l2.96.45c.41.06.75.12,1.03.19.27.08.5.16.68.27.19.1.36.23.52.38.26.26.45.56.58.91.13.34.19.72.19,1.14,0,1-.38,1.76-1.13,2.29-.75.53-1.84.8-3.3.81-.75,0-1.49-.06-2.2-.19-.71-.13-1.39-.35-2.02-.66-.63-.3-1.21-.72-1.73-1.24l-3.13,3.13c.81.82,1.68,1.47,2.59,1.95.92.48,1.91.82,2.98,1.02,1.07.21,2.23.31,3.47.3,1.31,0,2.52-.17,3.64-.5,1.11-.33,2.09-.82,2.92-1.46.83-.64,1.47-1.43,1.93-2.36.46-.93.7-2,.7-3.2ZM369.25,169.42h-6.16l3.13-9.02,3.03,9.02ZM377.05,177.88l-9.05-24.78h-3.79l-9.02,24.78h5.05l1.5-4.39h8.81l1.46,4.39h5.05ZM357,153.09h-5.05l-4.98,16.15-4.98-16.15h-5.01l8.18,24.78h3.62l8.21-24.78ZM331.03,165.49c0,1.17-.02,2.15-.06,2.93-.04.78-.11,1.42-.2,1.91-.1.5-.22.91-.38,1.22-.16.32-.35.61-.57.86-.35.41-.79.73-1.31.98-.53.24-1.12.37-1.79.38-.66,0-1.26-.13-1.79-.38-.53-.25-.98-.57-1.35-.98-.23-.25-.41-.54-.57-.86-.15-.32-.27-.73-.37-1.22-.09-.49-.15-1.13-.19-1.91-.04-.78-.06-1.76-.06-2.93s.02-2.15.06-2.94c.04-.78.1-1.42.19-1.93.09-.5.21-.91.37-1.23.16-.32.34-.61.57-.86.37-.41.82-.73,1.35-.96.53-.24,1.13-.35,1.79-.36.67,0,1.26.12,1.79.36.52.24.96.56,1.31.96.23.25.42.54.57.86.16.32.28.73.38,1.23.09.5.16,1.14.2,1.93.05.79.06,1.76.06,2.94ZM335.87,165.49c0-1.18-.01-2.25-.05-3.21-.04-.96-.14-1.83-.3-2.63-.16-.79-.41-1.53-.76-2.21-.35-.68-.82-1.32-1.44-1.94-.83-.84-1.78-1.49-2.86-1.93-1.08-.45-2.33-.67-3.75-.68-1.42,0-2.67.23-3.77.68-1.1.45-2.05,1.09-2.88,1.93-.61.61-1.09,1.26-1.43,1.94-.35.68-.59,1.42-.75,2.21-.15.79-.24,1.67-.28,2.63-.03.96-.05,2.04-.05,3.21,0,1.18.01,2.25.05,3.21.03.96.13,1.84.28,2.63.16.79.4,1.53.75,2.21.34.68.82,1.32,1.43,1.94.83.84,1.79,1.49,2.88,1.93,1.09.45,2.34.67,3.77.68,1.42,0,2.67-.23,3.75-.68,1.08-.45,2.03-1.09,2.86-1.93.61-.61,1.09-1.26,1.44-1.94.35-.68.6-1.42.76-2.21.16-.8.26-1.67.3-2.63.04-.96.05-2.03.05-3.21ZM313.32,177.88v-24.78h-4.84v24.78h4.84ZM299.39,165.49c0,.97,0,1.81-.03,2.52-.02.7-.07,1.31-.13,1.81-.07.5-.17.93-.31,1.29-.13.35-.31.66-.54.93-.4.5-.9.89-1.5,1.14-.6.26-1.31.39-2.12.39h-3.69v-16.15h3.69c.82,0,1.53.13,2.12.39.6.26,1.1.64,1.5,1.14.23.27.41.57.54.93.13.35.24.78.31,1.29.06.5.11,1.1.13,1.81.02.71.03,1.55.03,2.52ZM304.23,165.49c.01-1.36-.01-2.57-.06-3.63-.05-1.06-.19-2.01-.42-2.84-.22-.84-.58-1.6-1.08-2.3-.59-.82-1.25-1.5-1.98-2.04-.73-.53-1.55-.93-2.46-1.19-.9-.26-1.92-.39-3.05-.39h-8.95v24.78h8.95c1.13,0,2.14-.13,3.05-.39.91-.26,1.73-.66,2.46-1.19.73-.53,1.39-1.21,1.98-2.04.5-.7.86-1.47,1.08-2.3.23-.84.37-1.79.42-2.84.05-1.06.08-2.26.06-3.63ZM277.08,160.68c0,.64-.15,1.21-.44,1.7-.28.49-.7.87-1.22,1.15-.53.28-1.14.42-1.86.42h-4.56v-6.54h4.56c.71,0,1.33.14,1.86.42.52.27.93.66,1.22,1.15.29.49.44,1.06.44,1.7ZM282.93,177.88l-5.53-10.69c.6-.22,1.18-.52,1.72-.89.54-.38,1.02-.84,1.44-1.38.42-.55.75-1.17.99-1.87.24-.7.37-1.49.37-2.36,0-1.04-.19-2.02-.55-2.94-.37-.91-.89-1.72-1.58-2.41-.69-.7-1.53-1.24-2.52-1.64-.99-.39-2.12-.6-3.39-.6h-9.71v24.78h4.84v-9.88h3.48l4.84,9.88h5.6ZM254,169.42h-6.16l3.13-9.02,3.03,9.02ZM261.8,177.88l-9.05-24.78h-3.79l-9.02,24.78h5.05l1.5-4.39h8.81l1.46,4.39h5.05ZM239.52,170.25h-4.91c-.16.68-.42,1.28-.77,1.81-.35.53-.81.94-1.37,1.24-.56.3-1.24.46-2.04.46-.66,0-1.26-.12-1.78-.34-.53-.23-.96-.54-1.32-.95-.23-.25-.42-.54-.57-.87-.16-.33-.28-.74-.38-1.25-.09-.5-.16-1.15-.2-1.94-.05-.78-.06-1.77-.06-2.94s.02-2.16.06-2.94c.04-.79.11-1.44.2-1.94.1-.5.22-.92.38-1.25.16-.32.35-.61.57-.86.35-.41.79-.72,1.32-.95.52-.23,1.12-.34,1.78-.34.8,0,1.48.16,2.04.46.56.3,1,.71,1.35,1.24.34.53.6,1.13.75,1.81h4.94c-.31-1.73-.89-3.17-1.73-4.33-.84-1.17-1.89-2.04-3.14-2.62-1.25-.59-2.66-.88-4.21-.88-1.42,0-2.67.23-3.75.68-1.09.45-2.05,1.09-2.9,1.93-.61.61-1.09,1.26-1.43,1.94-.35.68-.59,1.42-.75,2.21-.15.79-.24,1.67-.28,2.63-.03.96-.05,2.04-.05,3.21,0,1.18.01,2.25.05,3.21.03.96.13,1.84.28,2.63.16.79.4,1.53.75,2.21.34.68.82,1.32,1.43,1.94.85.84,1.81,1.49,2.9,1.93,1.08.45,2.33.67,3.75.68,1.15,0,2.23-.17,3.23-.49,1-.33,1.9-.82,2.7-1.48.79-.66,1.46-1.47,2-2.45.54-.97.92-2.11,1.15-3.41Z"/>
  <path class="cls-4" d="M43.82,16.69h-8.54l4.3-12.07,4.24,12.07ZM48.96,23.98L40.58,1.12h-2.05l-8.41,22.85h2.6l1.83-5.17h9.98l1.83,5.17h2.6Z"/>
  <path class="cls-4" d="M63.63,19.35c0-.98-.2-1.77-.59-2.36-.39-.59-.93-1.04-1.63-1.34-.7-.29-1.51-.48-2.43-.56l-2.54-.22c-.66-.05-1.19-.18-1.6-.37-.41-.2-.7-.45-.89-.78-.19-.33-.28-.71-.27-1.16,0-.81.3-1.44.9-1.9.59-.45,1.48-.69,2.63-.7.82,0,1.59.1,2.29.3.71.2,1.35.52,1.91.95l1.51-1.51c-.71-.58-1.56-1.01-2.52-1.28-.97-.28-2.02-.42-3.16-.42-.85,0-1.62.11-2.33.32-.71.21-1.32.51-1.84.91-.52.4-.93.88-1.21,1.46s-.43,1.22-.43,1.94c0,1.3.41,2.3,1.2,3,.8.7,1.97,1.11,3.51,1.24l2.6.22c.91.08,1.58.31,2,.69.43.39.64.93.63,1.62,0,.62-.18,1.14-.51,1.55-.34.41-.82.72-1.44.93-.63.21-1.37.31-2.25.31-.98,0-1.89-.13-2.72-.42-.83-.28-1.56-.75-2.19-1.41l-1.54,1.54c.58.56,1.2,1,1.86,1.33.66.34,1.37.58,2.14.73.77.15,1.59.22,2.48.22,1.28,0,2.4-.19,3.36-.57.96-.37,1.71-.92,2.24-1.64.54-.72.8-1.58.81-2.61"/>
  <path class="cls-4" d="M77.91,16.08c0,.59-.02,1.19-.07,1.79-.05.6-.17,1.17-.34,1.7-.18.53-.46.99-.84,1.39-.37.37-.81.66-1.3.86-.49.2-1.02.3-1.59.3s-1.09-.1-1.57-.3c-.48-.2-.91-.49-1.28-.86-.38-.39-.66-.86-.85-1.39-.19-.54-.3-1.1-.36-1.7-.05-.6-.08-1.2-.07-1.79,0-.59.02-1.19.07-1.79.06-.6.18-1.17.36-1.7.18-.54.47-.99.85-1.39.37-.37.8-.66,1.28-.86.49-.2,1.01-.3,1.57-.3s1.1.1,1.59.3c.49.2.93.48,1.3.86.38.39.66.85.84,1.39.18.54.29,1.1.34,1.7.05.6.07,1.2.07,1.79M80.22,16.08c0-.81-.04-1.6-.14-2.35-.1-.75-.29-1.46-.57-2.12-.28-.66-.68-1.27-1.21-1.81-.55-.55-1.19-.99-1.95-1.31-.75-.32-1.62-.48-2.58-.49-.96,0-1.82.17-2.58.49-.75.32-1.4.76-1.95,1.31-.53.55-.93,1.15-1.21,1.81-.28.66-.47,1.37-.57,2.12-.1.75-.15,1.54-.14,2.35,0,.81.04,1.6.14,2.35.1.75.29,1.46.57,2.12.28.66.68,1.27,1.21,1.82.55.55,1.19.99,1.95,1.31.76.32,1.62.49,2.58.49.96,0,1.82-.17,2.58-.49.75-.32,1.4-.75,1.95-1.31.53-.55.94-1.16,1.21-1.82.28-.66.47-1.37.57-2.12.1-.75.15-1.54.14-2.35Z"/>
  <path class="cls-4" d="M96.49,21.83l-1.57-1.51c-.39.44-.77.79-1.13,1.05-.36.27-.74.46-1.14.58-.4.12-.85.17-1.35.17-.78,0-1.47-.15-2.1-.45-.62-.3-1.14-.75-1.56-1.34-.25-.34-.44-.71-.59-1.11-.15-.4-.26-.86-.33-1.37-.07-.51-.1-1.1-.1-1.75s.03-1.25.1-1.75c.07-.51.18-.97.33-1.37.15-.4.35-.78.59-1.11.42-.59.94-1.04,1.56-1.34.63-.3,1.32-.45,2.1-.45.5,0,.95.05,1.35.17.4.11.78.3,1.14.56.36.26.74.6,1.13,1.04l1.57-1.48c-.54-.58-1.07-1.05-1.59-1.39-.52-.34-1.08-.59-1.66-.74-.58-.14-1.23-.22-1.95-.21-1,0-1.93.17-2.77.5-.85.34-1.59.85-2.22,1.52-.63.67-1.12,1.51-1.47,2.53-.35,1.01-.53,2.19-.53,3.54,0,1.35.18,2.52.53,3.54.35,1.01.84,1.86,1.47,2.53.63.67,1.37,1.18,2.22,1.51.85.34,1.77.51,2.77.51.72,0,1.37-.07,1.95-.21.58-.15,1.13-.4,1.66-.74.52-.34,1.05-.81,1.59-1.39"/>
  <path class="cls-4" d="M103.36,3.72V1.12h-2.6v2.6h2.6ZM103.2,23.98v-15.79h-2.31v15.79h2.31Z"/>
  <path class="cls-4" d="M117.97,18.39c0,.66-.06,1.21-.2,1.66-.13.45-.33.81-.6,1.06-.33.32-.68.55-1.06.7-.37.16-.77.25-1.18.3-.41.04-.85.06-1.29.06-1.25,0-2.17-.22-2.76-.66-.59-.44-.88-1.12-.87-2.03,0-.91.29-1.61.87-2.08.59-.47,1.47-.71,2.66-.71h4.43v1.7ZM120.28,23.98v-10.72c0-1.72-.52-3.03-1.57-3.92-1.05-.89-2.63-1.34-4.75-1.34-.85,0-1.61.06-2.27.2-.67.13-1.27.37-1.81.72-.54.34-1.04.82-1.5,1.42l1.57,1.44c.3-.44.64-.79,1-1.05.36-.26.78-.45,1.26-.57.48-.12,1.05-.18,1.72-.17.96,0,1.74.13,2.33.39.59.26,1.03.64,1.31,1.16.27.51.41,1.16.41,1.93v1.51h-4.75c-1.18,0-2.17.19-2.99.57-.81.37-1.42.9-1.84,1.58-.42.68-.63,1.48-.63,2.41,0,.63.1,1.23.3,1.79.2.56.5,1.03.88,1.42.33.34.7.62,1.11.83.42.21.9.37,1.44.47.55.1,1.18.14,1.9.14s1.31-.05,1.84-.16c.52-.11,1.01-.28,1.44-.53.43-.25.86-.59,1.28-1.01v1.51h2.31Z"/>
  <path class="cls-4" d="M137.22,21.83l-1.57-1.51c-.39.44-.77.79-1.13,1.05-.36.27-.74.46-1.14.58-.4.12-.85.17-1.35.17-.78,0-1.47-.15-2.1-.45-.62-.3-1.14-.75-1.56-1.34-.25-.34-.44-.71-.59-1.11-.15-.4-.26-.86-.33-1.37-.07-.51-.1-1.1-.1-1.75s.03-1.25.1-1.75c.07-.51.18-.97.33-1.37.15-.4.35-.78.59-1.11.42-.59.94-1.04,1.56-1.34.63-.3,1.32-.45,2.1-.45.5,0,.95.05,1.35.17.4.11.78.3,1.14.56.36.26.74.6,1.13,1.04l1.57-1.48c-.54-.58-1.07-1.05-1.59-1.39-.52-.34-1.08-.59-1.66-.74-.58-.14-1.23-.22-1.95-.21-1,0-1.93.17-2.77.5-.85.34-1.59.85-2.22,1.52-.63.67-1.12,1.51-1.47,2.53-.35,1.01-.53,2.19-.53,3.54,0,1.35.18,2.52.53,3.54.35,1.01.84,1.86,1.47,2.53.63.67,1.37,1.18,2.22,1.51.85.34,1.77.51,2.77.51.72,0,1.37-.07,1.95-.21.58-.15,1.13-.4,1.66-.74.52-.34,1.05-.81,1.59-1.39"/>
  <path class="cls-4" d="M144.09,3.72V1.12h-2.6v2.6h2.6ZM143.93,23.98v-15.79h-2.31v15.79h2.31Z"/>
  <path class="cls-4" d="M159.37,0h-2.76l-2.82,4.91h2.12l3.47-4.91ZM159.5,16.08c0,.59-.02,1.19-.07,1.79-.05.6-.17,1.17-.34,1.7-.18.53-.46.99-.84,1.39-.37.37-.81.66-1.3.86-.49.2-1.02.3-1.59.3s-1.09-.1-1.57-.3c-.48-.2-.91-.49-1.28-.86-.38-.39-.66-.86-.85-1.39-.19-.54-.3-1.1-.36-1.7-.05-.6-.08-1.2-.07-1.79,0-.59.02-1.19.07-1.79.06-.6.18-1.17.36-1.7.18-.54.47-.99.85-1.39.37-.37.8-.66,1.28-.86.49-.2,1.01-.3,1.57-.3s1.1.1,1.59.3c.49.2.93.48,1.3.86.38.39.66.85.84,1.39.18.54.29,1.1.34,1.7.05.6.07,1.2.07,1.79ZM161.81,16.08c0-.81-.04-1.6-.14-2.35-.1-.75-.29-1.46-.57-2.12-.28-.66-.68-1.27-1.21-1.81-.55-.55-1.19-.99-1.95-1.31-.75-.32-1.62-.48-2.58-.49-.96,0-1.82.17-2.58.49-.75.32-1.4.76-1.95,1.31-.53.55-.93,1.15-1.21,1.81-.28.66-.47,1.37-.57,2.12-.1.75-.15,1.54-.14,2.35,0,.81.04,1.6.14,2.35.1.75.29,1.46.57,2.12.28.66.68,1.27,1.21,1.82.55.55,1.19.99,1.95,1.31.76.32,1.62.49,2.58.49.96,0,1.82-.17,2.58-.49.75-.32,1.4-.75,1.95-1.31.53-.55.94-1.16,1.21-1.82.28-.66.47-1.37.57-2.12.1-.75.15-1.54.14-2.35Z"/>
  <path class="cls-4" d="M179.18,23.98v-10.11c0-.91-.13-1.74-.4-2.48-.27-.73-.68-1.37-1.24-1.92-.48-.48-1.06-.85-1.74-1.1-.68-.25-1.45-.37-2.3-.37s-1.71.16-2.46.48c-.75.32-1.41.8-1.97,1.44v-1.73h-2.31v15.79h2.31v-9.73c0-.92.17-1.7.49-2.32.32-.63.78-1.1,1.36-1.41.58-.32,1.27-.48,2.07-.48s1.48.15,2.06.47c.58.31,1.03.78,1.34,1.4.32.63.47,1.4.48,2.33v9.73h2.31Z"/>
  <path class="cls-2" d="M102.57,67.69c44.02-4.57,54.81-8.3,64.78,6.23,9.97,14.53,12.87,41.11,9.55,54.4-3.32,13.29-44.43,45.67-43.6,46.92.83,1.25-36.96,21.59-36.96,21.59l-35.29-18.3-21.18-21.56-23.67-39.45.83-21.63,3.32-17.4,10.38-14.12,14.95-6.64,20.35-1.25,16.2,5.4,20.34,5.81Z"/>
  <path class="cls-5" d="M37.42,131.61h17.25s5.5-11.84,12.28-11.84c8.08,0,12.28,11.83,12.28,11.83h9.09s9.98-48.46,9.98-48.46l6.66,89.36,11.21-40.91h7.4s4.38-9.61,9.76-9.61,9.75,9.75,9.75,9.75h21.37"/>
  <path class="cls-3" d="M124.49,34.94c-8.04,10.49-15.21,19.73-25.23,30.84-10.02-12.22-15.89-17.82-25.23-30.84C32.96,32.36,8.02,55.01,1.2,89.21c-9.96,60.57,43.98,94.98,98.06,130.18,50.44-21.65,82.48-54.01,98.99-97.09,14.95-51.11-23.99-85.35-73.76-87.36M155.23,140.48c-12.74,19.04-35.03,36.04-56.05,46.85-32-17.9-58.04-39.66-66.24-72.91-1.72-6.99-1.76-13.6.45-20.63,8.93-28.41,35.95-26.6,65.91-20.47,22.23-7.07,46.17-5.78,61.12,7.82,12.71,13.5,9.24,37.77-5.19,59.35Z"/>
</svg>